# xmcd CD database file
#
# Track frame offsets:
#	150
#	22221
#	43049
#	67763
#	87539
#	111524
#	135476
#	156267
#	175017
#	193449
#	215277
#	239229
#
# Disc length: 3517 seconds
#
# Revision: 0
# Processed by: cddbd v1.5.2PL0 Copyright (c) Steve Scherf et al.
# Submitted via: CDex 1.51
#
DISCID=b40dbb0c
DTITLE=Timbalive - From Miami A La Habana
DYEAR=2009
DGENRE=Salsa
TTITLE0=Dame Un Tin
TTITLE1=De Miami A La Habana
TTITLE2=El Dinero
TTITLE3=Un Poquito Pa' Despues
TTITLE4=Enrredado En Tu Pelo
TTITLE5=Ave Maria Que Calor
TTITLE6=Chirrin Chirran
TTITLE7=Zorra
TTITLE8=Timba Pa' La Humanidad
TTITLE9=Enrredado En Tu Pelo (Version Timbalive)
TTITLE10=De Miami A La Habana (Version Timbalive)
TTITLE11=Como Miami No Hay Na´ (Bonus Track)
EXTD=YEAR: 2009
EXTT0=
EXTT1=
EXTT2=
EXTT3=
EXTT4=
EXTT5=
EXTT6=
EXTT7=
EXTT8=
EXTT9=
EXTT10=
EXTT11=
PLAYORDER=
